<?xml version="1.0" encoding="utf-8"?>
<!-- Generator: Adobe Illustrator 16.0.4, SVG Export Plug-In . SVG Version: 6.00 Build 0)  -->
<!DOCTYPE svg PUBLIC "-//W3C//DTD SVG 1.1//EN" "http://www.w3.org/Graphics/SVG/1.1/DTD/svg11.dtd">
<svg version="1.1" id="Layer_1" xmlns="http://www.w3.org/2000/svg" xmlns:xlink="http://www.w3.org/1999/xlink" x="0px" y="0px"
	 width="792px" height="1224px" viewBox="0 0 792 1224" enable-background="new 0 0 792 1224" xml:space="preserve">
<g>
	<path fill="#009444" d="M371.822,545.661c-10.328,0-19.309,6.96-21.554,21.778h40.188
		C390.457,554.642,385.068,545.661,371.822,545.661z"/>
	<path fill="#009444" d="M649.394,655.512c-0.537,0.445-6.935,5.764-23.173,19.262C563.553,726.867,647.399,657.17,649.394,655.512z
		"/>
	<path fill="#009444" d="M649.394,655.512C649.443,655.471,649.441,655.472,649.394,655.512L649.394,655.512z"/>
	<path fill="#009444" d="M451.74,377.564c-118.841-36.601-288.084,59.373-316.002,181.922
		c-27.257,119.646,90.865,180.572,189.829,184.929c93.496,4.115,225.223-6.939,300.654-69.643
		C740.449,579.821,537.479,403.97,451.74,377.564z M306.716,634.57h-33.004v-64.886c0-16.165-4.266-21.104-13.696-21.104
		c-8.307,0-13.471,3.817-20.656,10.777v75.214h-33.004V523.209h26.942l2.245,14.145h0.898c9.43-8.98,20.655-16.839,35.698-16.839
		c24.248,0,34.576,17.063,34.576,44.904V634.57z M417.174,587.87h-66.681c2.918,16.839,14.145,24.248,28.962,24.248
		c8.308,0,15.941-2.47,24.023-7.409l11.002,19.982c-11.451,7.857-26.269,12.572-39.516,12.572
		c-31.881,0-56.354-21.553-56.354-58.375c0-36.147,25.82-58.375,52.537-58.375c31.657,0,47.374,23.125,47.374,53.436
		C418.521,579.788,417.848,585.176,417.174,587.87z M557.943,634.57h-38.617l-10.104-44.455
		c-2.245-10.328-4.041-20.656-6.062-32.555h-0.898c-2.021,11.899-3.593,22.228-5.613,32.555l-9.879,44.455h-37.719l-27.84-111.361
		h32.779l10.777,51.639c1.796,11.001,3.143,21.778,4.938,33.004h0.898c2.021-11.226,3.817-22.452,6.511-33.004l12.349-51.639h28.514
		l12.573,51.639c2.694,11.001,4.715,21.778,6.96,33.004h0.898c2.021-11.226,3.143-22.002,5.164-33.004l10.552-51.639h30.534
		L557.943,634.57z"/>
</g>
</svg>
